<?xml version="1.0" encoding="UTF-8" standalone="no"?>
<!-- Created with Inkscape (http://www.inkscape.org/) -->

<svg
   xmlns:dc="http://purl.org/dc/elements/1.1/"
   xmlns:cc="http://creativecommons.org/ns#"
   xmlns:rdf="http://www.w3.org/1999/02/22-rdf-syntax-ns#"
   xmlns:svg="http://www.w3.org/2000/svg"
   xmlns="http://www.w3.org/2000/svg"
   xmlns:xlink="http://www.w3.org/1999/xlink"
   xmlns:sodipodi="http://sodipodi.sourceforge.net/DTD/sodipodi-0.dtd"
   xmlns:inkscape="http://www.inkscape.org/namespaces/inkscape"
   width="48"
   height="48"
   id="svg4230"
   version="1.1"
   inkscape:version="0.48.4 r9939"
   sodipodi:docname="terminal.svg"
   inkscape:export-filename="/home/xylon/.icons/Smooth/apps/big/utilities-terminal.png"
   inkscape:export-xdpi="960"
   inkscape:export-ydpi="960">
  <defs
     id="defs4232">
    <linearGradient
       inkscape:collect="always"
       id="linearGradient7161">
      <stop
         style="stop-color:#dedede;stop-opacity:1"
         offset="0"
         id="stop7163" />
      <stop
         style="stop-color:#f0f0f0;stop-opacity:1"
         offset="1"
         id="stop7165" />
    </linearGradient>
    <linearGradient
       inkscape:collect="always"
       xlink:href="#linearGradient7161"
       id="linearGradient7167"
       x1="29.135878"
       y1="1049.4602"
       x2="29.135878"
       y2="1007.4396"
       gradientUnits="userSpaceOnUse"
       gradientTransform="translate(60,0)" />
    <linearGradient
       inkscape:collect="always"
       xlink:href="#linearGradient27295"
       id="linearGradient27301"
       x1="107.16528"
       y1="39.527332"
       x2="112.07692"
       y2="3.5181"
       gradientUnits="userSpaceOnUse"
       gradientTransform="matrix(0.71213971,0,0,0.84562144,-39.864114,1009.5049)" />
    <linearGradient
       id="linearGradient27295">
      <stop
         style="stop-color:#1e232b;stop-opacity:1;"
         offset="0"
         id="stop27297" />
      <stop
         style="stop-color:#292f3b;stop-opacity:1"
         offset="1"
         id="stop27299" />
    </linearGradient>
    <filter
       inkscape:collect="always"
       id="filter57371"
       x="-0.13758174"
       width="1.2751635"
       y="-0.073859671"
       height="1.1477193">
      <feGaussianBlur
         inkscape:collect="always"
         stdDeviation="0.42100012"
         id="feGaussianBlur57373" />
    </filter>
    <filter
       inkscape:collect="always"
       id="filter57375"
       x="-0.10104003"
       width="1.2020801"
       y="-0.50520015"
       height="2.0104003">
      <feGaussianBlur
         inkscape:collect="always"
         stdDeviation="0.42100012"
         id="feGaussianBlur57377" />
    </filter>
    <filter
       inkscape:collect="always"
       id="filter3827">
      <feGaussianBlur
         inkscape:collect="always"
         stdDeviation="0.81626087"
         id="feGaussianBlur3829" />
    </filter>
  </defs>
  <sodipodi:namedview
     id="base"
     pagecolor="#ffffff"
     bordercolor="#666666"
     borderopacity="1.0"
     inkscape:pageopacity="0.0"
     inkscape:pageshadow="2"
     inkscape:zoom="11.313708"
     inkscape:cx="14.5744"
     inkscape:cy="22.904144"
     inkscape:document-units="px"
     inkscape:current-layer="layer1"
     showgrid="false"
     inkscape:showpageshadow="false"
     borderlayer="true"
     inkscape:window-width="1440"
     inkscape:window-height="837"
     inkscape:window-x="0"
     inkscape:window-y="25"
     inkscape:window-maximized="1" />
  <metadata
     id="metadata4235">
    <rdf:RDF>
      <cc:Work
         rdf:about="">
        <dc:format>image/svg+xml</dc:format>
        <dc:type
           rdf:resource="http://purl.org/dc/dcmitype/StillImage" />
        <dc:title></dc:title>
      </cc:Work>
    </rdf:RDF>
  </metadata>
  <g
     inkscape:label="Capa 1"
     inkscape:groupmode="layer"
     id="layer1"
     transform="translate(0,-1004.3622)">
    <rect
       ry="1.5088234"
       rx="1.2706549"
       y="1009.4622"
       x="2.0869579"
       height="37.799999"
       width="43.826088"
       id="rect3057"
       style="fill:#000000;fill-opacity:1;stroke:none;filter:url(#filter3827);opacity:0.65" />
    <rect
       style="fill:#000000;fill-opacity:0.01960784;stroke:none"
       id="rect5263"
       width="44.399963"
       height="44.399963"
       x="61.800018"
       y="1006.1622"
       ry="6.2786646" />
    <rect
       ry="6.1938181"
       y="1006.4623"
       x="62.100006"
       height="43.799973"
       width="43.799973"
       id="rect5261"
       style="fill:#000000;fill-opacity:0.03921569;stroke:none" />
    <rect
       style="fill:#000000;fill-opacity:0.07843137;stroke:none"
       id="rect5259"
       width="43.199982"
       height="43.199982"
       x="62.399994"
       y="1006.7623"
       ry="6.1089716" />
    <rect
       ry="6.0241251"
       y="1007.0623"
       x="62.700012"
       height="42.599991"
       width="42.599991"
       id="rect5257"
       style="fill:#000000;fill-opacity:0.15686275;stroke:none" />
    <rect
       style="fill:url(#linearGradient7167);fill-opacity:1;stroke:none"
       id="rect5237"
       width="42"
       height="42"
       x="63"
       y="1007.3622"
       ry="5.9392786" />
    <path
       inkscape:connector-curvature="0"
       style="fill:#000000;fill-opacity:0.11764706;stroke:none"
       d="m 62.999999,1040.9247 0,2.5 c 0,3.2904 2.64714,5.9375 5.9375,5.9375 l 30.125,0 c 3.290361,0 5.937501,-2.6471 5.937501,-5.9375 l 0,-2.5 c 0,3.2904 -2.64714,5.9375 -5.937501,5.9375 l -30.125,0 c -3.29036,0 -5.9375,-2.6471 -5.9375,-5.9375 z"
       id="rect5265" />
    <path
       inkscape:connector-curvature="0"
       style="fill:#000000;fill-opacity:0.09803922;stroke:none"
       d="m 62.999999,1042.9247 0,0.5 c 0,3.2904 2.64714,5.9375 5.9375,5.9375 l 30.125,0 c 3.290361,0 5.937501,-2.6471 5.937501,-5.9375 l 0,-0.5 c 0,3.2904 -2.64714,5.9375 -5.937501,5.9375 l -30.125,0 c -3.29036,0 -5.9375,-2.6471 -5.9375,-5.9375 z"
       id="path5252" />
    <g
       style="font-size:22.59886932px;font-style:normal;font-variant:normal;font-weight:normal;font-stretch:normal;text-align:start;line-height:125%;letter-spacing:0px;word-spacing:0px;writing-mode:lr-tb;text-anchor:start;fill:#000000;fill-opacity:0.49803922;stroke:none;font-family:HelveNueThin;-inkscape-font-specification:HelveNueThin"
       id="text7199"
       transform="translate(60,0)">
      <path
         d="m 24.337006,1031.8763 q 0,2.0565 -1.649718,3.2768 -0.768361,0.565 -1.785311,0.8814 -1.016949,0.3389 -2.19209,0.3389 l 0,1.9887 -0.700565,0 0,-2.0113 q -1.107344,0 -2.056497,-0.3389 -0.926554,-0.3164 -1.762712,-0.9718 Q 12.45,1033.7068 12.45,1030.6785 l 0.858757,0 q 0,2.3277 1.378531,3.5932 1.378531,1.2656 3.661017,1.2656 2.327684,0 3.728814,-0.9944 1.423728,-1.0169 1.423728,-2.7344 0,-1.4238 -0.836158,-2.1243 -1.19774,-1.017 -4.926553,-1.7175 -2.553672,-0.4746 -3.683616,-1.469 -1.107345,-0.9943 -1.107345,-2.6666 0,-2.0565 1.468927,-3.2091 0.700565,-0.5423 1.581921,-0.8361 0.903955,-0.3164 2.011299,-0.3164 l 0,-1.1074 0.700565,0 0,1.0848 q 1.333333,0 2.282486,0.3616 0.949152,0.339 1.627119,1.0395 1.355932,1.4011 1.355932,3.5932 l -0.858757,0 q 0,-1.8757 -1.084746,-2.9378 -1.220339,-1.1978 -3.706215,-1.1978 -2.124293,0 -3.322033,0.9266 -1.19774,0.904 -1.19774,2.5763 0,1.4689 1.062146,2.2599 1.062147,0.7683 3.751413,1.2429 2.98305,0.565 4.248587,1.4689 1.468927,1.0622 1.468927,3.0961 z"
         id="path3244"
         inkscape:connector-curvature="0" />
    </g>
    <rect
       style="fill:#000000;fill-opacity:0.49803922;stroke:none"
       id="rect7203"
       width="10"
       height="26"
       x="85.550003"
       y="1015.3622"
       ry="0" />
    <rect
       style="fill:url(#linearGradient27301);fill-opacity:1;stroke:none"
       id="rect26525"
       width="43.826088"
       height="37.799999"
       x="2.0869579"
       y="1009.4622"
       rx="1.2706549"
       ry="1.5088234" />
    <text
       sodipodi:linespacing="125%"
       id="text57365"
       y="1028.6022"
       x="6.9759998"
       style="font-size:40px;font-style:normal;font-weight:normal;line-height:125%;letter-spacing:0px;word-spacing:0px;opacity:0.45;fill:#000000;fill-opacity:1;stroke:none;filter:url(#filter57371);font-family:Sans"
       xml:space="preserve"><tspan
         style="font-size:16px;font-style:normal;font-variant:normal;font-weight:bold;font-stretch:normal;letter-spacing:1.50000000000000000px;fill:#000000;fill-opacity:1;font-family:Source Code Pro;-inkscape-font-specification:Source Code Pro Bold"
         y="1028.6022"
         x="6.9759998"
         id="tspan57367"
         sodipodi:role="line">$</tspan></text>
    <text
       xml:space="preserve"
       style="font-size:40px;font-style:normal;font-weight:normal;line-height:125%;letter-spacing:0px;word-spacing:0px;fill:#ffffff;fill-opacity:1;stroke:none;font-family:Sans"
       x="6.9759998"
       y="1027.6022"
       id="text29520"
       sodipodi:linespacing="125%"><tspan
         sodipodi:role="line"
         id="tspan29522"
         x="6.9759998"
         y="1027.6022"
         style="font-size:16px;font-style:normal;font-variant:normal;font-weight:bold;font-stretch:normal;letter-spacing:1.5px;fill:#ffffff;fill-opacity:1;font-family:Source Code Pro;-inkscape-font-specification:Source Code Pro Bold">$</tspan></text>
    <rect
       ry="0"
       rx="0"
       y="1028.3622"
       x="18"
       height="2"
       width="10"
       id="rect57369"
       style="opacity:0.45;fill:#000000;fill-opacity:1;stroke:#ffffff;stroke-width:0;stroke-linecap:round;stroke-miterlimit:4;stroke-opacity:1;stroke-dasharray:none;filter:url(#filter57375)" />
    <rect
       style="fill:#ffffff;fill-opacity:1;stroke:#ffffff;stroke-width:0;stroke-linecap:round;stroke-miterlimit:4;stroke-opacity:1;stroke-dasharray:none"
       id="rect56855"
       width="10"
       height="2"
       x="18"
       y="1027.3622"
       rx="0"
       ry="0" />
    <path
       style="fill:#000000;fill-opacity:0.24309393;stroke:none"
       d="m 45.908981,1044.3121 c -0.495623,0.6545 -0.978322,1.2458 -1.33838,1.2374 l -41.3603025,-0.032 c -0.50631,-0.044 -0.835644,-0.5722 -1.174954,-1.0733 l -0.01292,0.8713 c 0.07741,1.0625 0.44889,1.9251 1.181413,2.0154 l 41.5962745,-0.01 c 0.923866,-0.2825 1.132509,-1.3739 1.120038,-1.9395 z"
       id="path27307"
       inkscape:connector-curvature="0"
       sodipodi:nodetypes="ccccccccc" />
  </g>
</svg>
