<?xml version="1.0" encoding="UTF-8" standalone="no"?>
<!-- Created with Inkscape (http://www.inkscape.org/) -->

<svg
   xmlns:dc="http://purl.org/dc/elements/1.1/"
   xmlns:cc="http://creativecommons.org/ns#"
   xmlns:rdf="http://www.w3.org/1999/02/22-rdf-syntax-ns#"
   xmlns:svg="http://www.w3.org/2000/svg"
   xmlns="http://www.w3.org/2000/svg"
   xmlns:sodipodi="http://sodipodi.sourceforge.net/DTD/sodipodi-0.dtd"
   xmlns:inkscape="http://www.inkscape.org/namespaces/inkscape"
   width="16"
   height="16"
   id="svg2"
   sodipodi:version="0.32"
   inkscape:version="0.48+devel r12378"
   version="1.0"
   sodipodi:docname="format-text-italic-symbolic.svg"
   inkscape:output_extension="org.inkscape.output.svg.inkscape"
   inkscape:export-filename="/home/matt/.icons/Sirocco/scalable/mimetypes/text-plain.png"
   inkscape:export-xdpi="90"
   inkscape:export-ydpi="90"
   sodipodi:modified="true"
   style="display:inline">
  <sodipodi:namedview
     id="base"
     pagecolor="#ffffff"
     bordercolor="#666666"
     borderopacity="1.0"
     inkscape:pageopacity="0.0"
     inkscape:pageshadow="2"
     inkscape:zoom="24.785767"
     inkscape:cx="-1.3976915"
     inkscape:cy="8.5662151"
     inkscape:document-units="px"
     inkscape:current-layer="layer1"
     width="128px"
     height="128px"
     inkscape:showpageshadow="false"
     inkscape:window-width="1366"
     inkscape:window-height="714"
     inkscape:window-x="0"
     inkscape:window-y="30"
     showguides="true"
     inkscape:guide-bbox="true"
     showgrid="true"
     inkscape:window-maximized="1"
     inkscape:snap-global="false">
    <sodipodi:guide
       id="guide2226"
       position="32.637397,117.99844"
       orientation="horizontal" />
    <sodipodi:guide
       id="guide2230"
       position="110,57.402344"
       orientation="vertical" />
    <sodipodi:guide
       id="guide2232"
       position="33.760911"
       orientation="horizontal" />
    <sodipodi:guide
       id="guide2231"
       position="46.774696"
       orientation="horizontal" />
    <inkscape:grid
       enabled="true"
       visible="true"
       id="grid3231"
       type="xygrid" />
    <sodipodi:guide
       orientation="1,0"
       position="100,67.625"
       id="guide2713" />
  </sodipodi:namedview>
  <defs
     id="defs4" />
  <metadata
     id="metadata7">
    <rdf:RDF>
      <cc:Work
         rdf:about="">
        <dc:format>image/svg+xml</dc:format>
        <dc:type
           rdf:resource="http://purl.org/dc/dcmitype/StillImage" />
      </cc:Work>
    </rdf:RDF>
  </metadata>
  <g
     style="display:inline"
     inkscape:label="Calque 1"
     id="layer1"
     inkscape:groupmode="layer">
    <g
       style="font-size:22.5px;font-style:italic;font-variant:normal;font-weight:500;font-stretch:normal;text-align:start;line-height:125%;letter-spacing:0px;word-spacing:0px;writing-mode:lr-tb;text-anchor:start;fill:#bebebe;fill-opacity:1;stroke:none;font-family:Helvetica 65 Medium;-inkscape-font-specification:'Helvetica 65 Medium, Medium Italic'"
       id="text4063"
       transform="matrix(0.97859329,0,0,0.97859329,6.5601656,1.3112619)">
      <path
         d="m 6.8600808,5.1588042 c 0.1575,-0.72 0.225,-1.26 0.225,-1.755 0,-0.8325 -0.135,-2.69999996 -4.365,-2.69999996 -2.76750002,0 -4.9275,0.96749996 -5.49,3.84749996 l 2.42999998,0 c 0.36,-1.44 1.50750002,-1.8225 2.90250002,-1.8225 1.0575,0 1.9575,0.2925 1.9575,1.395 0,0.8775 -0.4275,1.4625 -1.35,1.53 -0.8325,0.0675 -1.71,0.1575 -2.56500002,0.2025 -2.56499998,0.1575 -4.88249998,1.1475 -4.88249998,4.005 0,2.0474998 1.71,3.1049998 3.62249998,3.1049998 1.4175,0 2.90250002,-0.4725 3.91500002,-1.485 0.045,0.9 0.675,1.485 1.5525,1.485 0.675,0 1.35,-0.1575 2.0025,-0.315 l 0.405,-1.845 c -0.2925,0.0225 -0.6075,0.135 -0.9,0.135 -0.405,0 -0.54,-0.2025 -0.54,-0.5175 0,-0.315 0.135,-0.7199998 0.225,-1.1474998 L 6.8600808,5.1588042 z m -8.5725,4.2975 c 0,-1.935 2.63249998,-1.9125 4.0725,-2.025 0.5625,-0.0675 1.2375,-0.18 1.5975,-0.54 l 0.045,0.045 c -0.3375,2.205 -1.17,4.0049998 -3.66750002,4.0049998 C -0.60991922,10.941304 -1.7124192,10.581304 -1.7124192,9.4563042 Z"
         style="fill:#bebebe;fill-opacity:1"
         id="path4068"
         inkscape:connector-curvature="0" />
    </g>
  </g>
</svg>
