<?xml version="1.0" encoding="UTF-8" standalone="no"?>
<!-- Created with Inkscape (http://www.inkscape.org/) -->

<svg
   xmlns:dc="http://purl.org/dc/elements/1.1/"
   xmlns:cc="http://creativecommons.org/ns#"
   xmlns:rdf="http://www.w3.org/1999/02/22-rdf-syntax-ns#"
   xmlns:svg="http://www.w3.org/2000/svg"
   xmlns="http://www.w3.org/2000/svg"
   xmlns:sodipodi="http://sodipodi.sourceforge.net/DTD/sodipodi-0.dtd"
   xmlns:inkscape="http://www.inkscape.org/namespaces/inkscape"
   width="16"
   height="16"
   id="svg2"
   version="1.1"
   inkscape:version="0.48+devel r12686"
   sodipodi:docname="image-red-eye-symbolic.svg">
  <defs
     id="defs4" />
  <sodipodi:namedview
     id="base"
     pagecolor="#ffffff"
     bordercolor="#666666"
     borderopacity="1.0"
     inkscape:pageopacity="0.0"
     inkscape:pageshadow="2"
     inkscape:zoom="33.476731"
     inkscape:cx="4.3492498"
     inkscape:cy="8.7606748"
     inkscape:document-units="px"
     inkscape:current-layer="layer1"
     showgrid="false"
     inkscape:window-width="1366"
     inkscape:window-height="716"
     inkscape:window-x="0"
     inkscape:window-y="28"
     inkscape:window-maximized="1"
     inkscape:showpageshadow="false"
     borderlayer="true" />
  <metadata
     id="metadata7">
    <rdf:RDF>
      <cc:Work
         rdf:about="">
        <dc:format>image/svg+xml</dc:format>
        <dc:type
           rdf:resource="http://purl.org/dc/dcmitype/StillImage" />
        <dc:title />
      </cc:Work>
    </rdf:RDF>
  </metadata>
  <g
     inkscape:label="Capa 1"
     inkscape:groupmode="layer"
     id="layer1"
     transform="translate(0,-1036.3622)">
    <g
       transform="matrix(0.26666596,0,0,0.26666596,-31.989415,927.16478)"
       id="Eye"
       style="fill:#d40000;fill-opacity:1">
      <path
         style="fill:#d40000;fill-opacity:1"
         inkscape:connector-curvature="0"
         d="m 171.528,434.115 c 0,0 -6.989,-9.163 -21.251,-9.163 -14.147,0 -21.749,9.026 -21.749,9.026 -1.499,1.779 -1.408,4.332 0.203,5.67 1.03,0.857 2.444,1.014 3.726,0.557 1.861,5.881 7.033,13.826 17.499,13.826 10.356,0 15.564,-7.965 17.467,-13.842 1.227,0.461 2.59,0.352 3.626,-0.426 1.675,-1.255 1.891,-3.798 0.479,-5.648 z m -21.572,14.838 c -10.499,0 -12.888,-10.887 -13.137,-12.199 1.82,-1.318 4.67,-2.906 8.527,-3.691 l 2.076,4.291 -5.483,-1.883 c -0.325,0.873 -0.512,1.813 -0.512,2.799 0,4.441 3.601,8.039 8.04,8.039 4.44,0 8.039,-3.598 8.039,-8.039 0,-1.936 -0.685,-3.711 -1.824,-5.1 3.444,0.801 5.93,2.258 7.526,3.475 -0.33,1.548 -3.021,12.308 -13.252,12.308 z"
         id="path3949" />
    </g>
    <rect
       style="fill:#bebebe;fill-opacity:1;fill-rule:evenodd;stroke:none"
       id="rect4061"
       width="2"
       height="12.702"
       x="528.10931"
       y="894.0932"
       ry="0"
       transform="matrix(0.8660254,0.5,-0.5,0.8660254,0,0)" />
  </g>
</svg>
