<?xml version="1.0" encoding="UTF-8" standalone="no"?>
<!-- Created with Inkscape (http://www.inkscape.org/) -->

<svg
   xmlns:dc="http://purl.org/dc/elements/1.1/"
   xmlns:cc="http://creativecommons.org/ns#"
   xmlns:rdf="http://www.w3.org/1999/02/22-rdf-syntax-ns#"
   xmlns:svg="http://www.w3.org/2000/svg"
   xmlns="http://www.w3.org/2000/svg"
   xmlns:sodipodi="http://sodipodi.sourceforge.net/DTD/sodipodi-0.dtd"
   xmlns:inkscape="http://www.inkscape.org/namespaces/inkscape"
   version="1.1"
   width="16"
   height="16"
   id="svg7384"
   inkscape:version="0.48+devel r12487"
   sodipodi:docname="media-playlist-repeat-symbolic.svg">
  <sodipodi:namedview
     pagecolor="#ffffff"
     bordercolor="#666666"
     borderopacity="1"
     objecttolerance="10"
     gridtolerance="10"
     guidetolerance="10"
     inkscape:pageopacity="0"
     inkscape:pageshadow="2"
     inkscape:window-width="1366"
     inkscape:window-height="716"
     id="namedview7"
     showgrid="false"
     inkscape:zoom="14.777416"
     inkscape:cx="-19.577435"
     inkscape:cy="8"
     inkscape:window-x="0"
     inkscape:window-y="28"
     inkscape:window-maximized="1"
     inkscape:current-layer="svg7384" />
  <title
     id="title9167">Gnome Symbolic Icon Theme</title>
  <defs
     id="defs11" />
  <metadata
     id="metadata90">
    <rdf:RDF>
      <cc:Work
         rdf:about="">
        <dc:format>image/svg+xml</dc:format>
        <dc:type
           rdf:resource="http://purl.org/dc/dcmitype/StillImage" />
        <dc:title>Gnome Symbolic Icon Theme</dc:title>
      </cc:Work>
    </rdf:RDF>
  </metadata>
  <g
     style="fill:#bebebe;fill-opacity:1"
     inkscape:label="Capa 1"
     id="layer1"
     transform="matrix(0.40000007,0,0,0.40000007,-1.5999974,-403.34495)">
    <g
       id="Icons with numbers"
       transform="matrix(2.1428571,0,0,2.1428571,6.8571432,1011.2193)"
       style="fill:#bebebe;fill-opacity:1;stroke:none">
      <g
         transform="translate(-336,-96)"
         id="Group"
         style="fill:#bebebe;fill-opacity:1">
        <path
           id="Rectangle 259"
           d="m 350.429,101.67831 c 0.36461,0.69378 0.57106,1.48367 0.57106,2.32171 0,2.7558 -2.23709,5 -4.99669,5 l -4.00344,0 0,2 -4,-3 4,-3 0,2 4.00298,0 c 1.65528,0 2.99715,-1.34652 2.99715,-3 0,-0.38659 -0.073,-0.7561 -0.20606,-1.09545 z m -11.42907,2.32171 c 0,0.38659 0.073,0.7561 0.20606,1.09545 l -1.635,1.22626 c -0.36461,-0.69378 -0.57106,-1.48367 -0.57106,-2.32171 0,-2.7558 2.23709,-5 4.99669,-5 l 4.00344,0 0,-2 4,3 -4,3 0,-2 -4.00298,0 c -1.65528,0 -2.99715,1.34652 -2.99715,3 z"
           inkscape:connector-curvature="0"
           sodipodi:nodetypes="csscccccssccsccsscccccss"
           style="fill:#bebebe;fill-opacity:1" />
      </g>
    </g>
  </g>
</svg>
