<?xml version="1.0" encoding="UTF-8" standalone="no"?>
<!-- Created with Inkscape (http://www.inkscape.org/) -->

<svg
   xmlns:dc="http://purl.org/dc/elements/1.1/"
   xmlns:cc="http://creativecommons.org/ns#"
   xmlns:rdf="http://www.w3.org/1999/02/22-rdf-syntax-ns#"
   xmlns:svg="http://www.w3.org/2000/svg"
   xmlns="http://www.w3.org/2000/svg"
   xmlns:sodipodi="http://sodipodi.sourceforge.net/DTD/sodipodi-0.dtd"
   xmlns:inkscape="http://www.inkscape.org/namespaces/inkscape"
   version="1.1"
   width="16"
   height="16"
   id="svg7384"
   inkscape:version="0.48+devel r12487"
   sodipodi:docname="media-playlist-shuffle-symbolic.svg">
  <sodipodi:namedview
     pagecolor="#ffffff"
     bordercolor="#666666"
     borderopacity="1"
     objecttolerance="10"
     gridtolerance="10"
     guidetolerance="10"
     inkscape:pageopacity="0"
     inkscape:pageshadow="2"
     inkscape:window-width="1366"
     inkscape:window-height="716"
     id="namedview7"
     showgrid="false"
     inkscape:zoom="14.777416"
     inkscape:cx="15.703669"
     inkscape:cy="9.2556603"
     inkscape:window-x="0"
     inkscape:window-y="28"
     inkscape:window-maximized="1"
     inkscape:current-layer="svg7384" />
  <title
     id="title9167">Gnome Symbolic Icon Theme</title>
  <defs
     id="defs11" />
  <metadata
     id="metadata90">
    <rdf:RDF>
      <cc:Work
         rdf:about="">
        <dc:format>image/svg+xml</dc:format>
        <dc:type
           rdf:resource="http://purl.org/dc/dcmitype/StillImage" />
        <dc:title>Gnome Symbolic Icon Theme</dc:title>
      </cc:Work>
    </rdf:RDF>
  </metadata>
  <g
     transform="matrix(0.40000005,0,0,0.40000005,-1.6000012,-403.34491)"
     id="layer1"
     inkscape:label="Capa 1"
     style="fill:#bebebe;fill-opacity:1">
    <g
       style="fill:#bebebe;stroke:none;fill-opacity:1"
       transform="matrix(2.1428571,0,0,2.1428571,6.8571432,1011.2193)"
       id="Icons with numbers">
      <g
         style="fill:#bebebe;fill-opacity:1"
         id="Group"
         transform="translate(-384,-96)">
        <path
           style="fill:#bebebe;fill-opacity:1"
           sodipodi:nodetypes="ccccccccccccccccccccccccccccc"
           inkscape:connector-curvature="0"
           d="m 393,109 -1.61633,-2.1551 1.25431,-1.66092 L 394,107 l 1.00267,0 0,-2 3.99733,3 -3.99733,3 0,-2 z M 388.38367,102.8449 387,101 l -2,0 0,-2 3,0 1.63798,2.18398 z M 393.04248,99 l 1.96019,0 0,-2 3.99733,3 -3.99733,3 0,-2 -0.96019,0 -6.0415,8 -3.00098,0 0,-2 2.00098,0 z"
           id="Shape" />
      </g>
    </g>
  </g>
</svg>
