<?xml version="1.0" encoding="UTF-8" standalone="no"?>
<!-- Created with Inkscape (http://www.inkscape.org/) -->

<svg
   xmlns:dc="http://purl.org/dc/elements/1.1/"
   xmlns:cc="http://creativecommons.org/ns#"
   xmlns:rdf="http://www.w3.org/1999/02/22-rdf-syntax-ns#"
   xmlns:svg="http://www.w3.org/2000/svg"
   xmlns="http://www.w3.org/2000/svg"
   xmlns:sodipodi="http://sodipodi.sourceforge.net/DTD/sodipodi-0.dtd"
   xmlns:inkscape="http://www.inkscape.org/namespaces/inkscape"
   version="1.1"
   width="16"
   height="16"
   id="svg7384"
   inkscape:version="0.48+devel r12493"
   sodipodi:docname="view-filter-symbolic.svg">
  <sodipodi:namedview
     pagecolor="#ffffff"
     bordercolor="#666666"
     borderopacity="1"
     objecttolerance="10"
     gridtolerance="10"
     guidetolerance="10"
     inkscape:pageopacity="0"
     inkscape:pageshadow="2"
     inkscape:window-width="1366"
     inkscape:window-height="714"
     id="namedview7"
     showgrid="false"
     inkscape:zoom="29.609767"
     inkscape:cx="9.7979212"
     inkscape:cy="7.9342247"
     inkscape:window-x="0"
     inkscape:window-y="30"
     inkscape:window-maximized="1"
     inkscape:current-layer="svg7384" />
  <title
     id="title9167">Gnome Symbolic Icon Theme</title>
  <defs
     id="defs11" />
  <metadata
     id="metadata90">
    <rdf:RDF>
      <cc:Work
         rdf:about="">
        <dc:format>image/svg+xml</dc:format>
        <dc:type
           rdf:resource="http://purl.org/dc/dcmitype/StillImage" />
        <dc:title>Gnome Symbolic Icon Theme</dc:title>
      </cc:Work>
    </rdf:RDF>
  </metadata>
  <path
     style="fill:#bebebe;fill-opacity:1;stroke:none"
     d="m 2,12 0,2 3,0 0,-2 z"
     id="path4100"
     inkscape:connector-curvature="0"
     sodipodi:nodetypes="ccccc" />
  <path
     style="fill:#bebebe;fill-opacity:1;stroke:none"
     d="M 2,7 2,9 5,9 5,7 Z"
     id="path4096"
     inkscape:connector-curvature="0"
     sodipodi:nodetypes="ccccc" />
  <path
     inkscape:connector-curvature="0"
     style="fill:#bebebe;fill-opacity:1;fill-rule:nonzero;stroke:none"
     d="m 6.499896,14 1,0 c 0,-4 0,-8 0,-12 l -1,0 c 0,4 0,8 0,12 z"
     id="path380"
     sodipodi:nodetypes="ccccc" />
  <path
     style="fill:#bebebe;fill-opacity:1;stroke:none"
     d="M 2,2 2,4 5,4 5,2 Z"
     id="path4092"
     inkscape:connector-curvature="0"
     sodipodi:nodetypes="ccccc" />
  <path
     sodipodi:nodetypes="cccccccccc"
     inkscape:connector-curvature="0"
     style="fill:#bebebe;fill-opacity:1;stroke:none"
     d="M 8.9997924,1.999996 8.9997924,7 14,7 14,1.999996 Z m 0.9999996,1 3.000208,0 L 13,6 9.999792,6 Z"
     id="path3247" />
  <path
     id="path3249"
     d="M 8.9997924,8.999996 8.9997924,14 14,14 14,8.999996 Z m 0.9999996,1 3.000208,0 L 13,13 9.999792,13 Z"
     style="fill:#bebebe;fill-opacity:1;stroke:none"
     inkscape:connector-curvature="0"
     sodipodi:nodetypes="cccccccccc" />
</svg>
