<?xml version="1.0" encoding="UTF-8" standalone="no"?>
<!-- Created with Inkscape (http://www.inkscape.org/) -->

<svg
   xmlns:dc="http://purl.org/dc/elements/1.1/"
   xmlns:cc="http://creativecommons.org/ns#"
   xmlns:rdf="http://www.w3.org/1999/02/22-rdf-syntax-ns#"
   xmlns:svg="http://www.w3.org/2000/svg"
   xmlns="http://www.w3.org/2000/svg"
   xmlns:sodipodi="http://sodipodi.sourceforge.net/DTD/sodipodi-0.dtd"
   xmlns:inkscape="http://www.inkscape.org/namespaces/inkscape"
   width="48"
   height="48"
   id="svg2"
   version="1.1"
   inkscape:version="0.48+devel r12392"
   sodipodi:docname="character-set.svg">
  <defs
     id="defs4" />
  <sodipodi:namedview
     id="base"
     pagecolor="#ffffff"
     bordercolor="#666666"
     borderopacity="1.0"
     inkscape:pageopacity="0.0"
     inkscape:pageshadow="2"
     inkscape:zoom="8.290827"
     inkscape:cx="31.603355"
     inkscape:cy="29.74838"
     inkscape:document-units="px"
     inkscape:current-layer="layer1"
     showgrid="false"
     inkscape:window-width="1366"
     inkscape:window-height="716"
     inkscape:window-x="0"
     inkscape:window-y="28"
     inkscape:window-maximized="1" />
  <metadata
     id="metadata7">
    <rdf:RDF>
      <cc:Work
         rdf:about="">
        <dc:format>image/svg+xml</dc:format>
        <dc:type
           rdf:resource="http://purl.org/dc/dcmitype/StillImage" />
        <dc:title />
      </cc:Work>
    </rdf:RDF>
  </metadata>
  <g
     inkscape:label="Capa 1"
     inkscape:groupmode="layer"
     id="layer1"
     transform="translate(0,-1004.3622)">
    <g
       id="g2994"
       style="fill:#1a1a1a;fill-opacity:1"
       transform="matrix(0.92868715,0,0,0.92868715,1.6889266,72.564954)">
      <path
         inkscape:connector-curvature="0"
         id="path868"
         d="m 27.299558,1037.9915 0,0.5343 -7.169204,0 0,-0.5343 q 1.012137,0 1.377614,-0.14 0.590403,-0.2249 0.590403,-0.9278 0,-0.2531 -0.140506,-0.6746 -0.112505,-0.4217 -0.393595,-1.0965 l -1.152708,-2.6992 -7.365991,0 -1.293279,3.2895 q -0.224919,0.5904 -0.224919,1.0683 0,0.7591 0.730988,1.0403 0.365477,0.14 1.180806,0.14 l 0,0.5343 -5.5666844,0 0,-0.5343 q 0.5060681,0 0.8153287,-0.1685 0.3373722,-0.1688 0.6185212,-0.4499 0.4217136,-0.4498 1.0683465,-1.7994 0.337379,-0.7028 0.984018,-2.1928 l 5.847813,-13.8042 0.562298,0 7.000514,15.969 q 0.702856,1.5744 1.124589,2.0241 0.449832,0.4217 1.405712,0.4217 z m -13.776116,-6.6911 6.494459,0 -3.261288,-7.7316 -3.233171,7.7316 z"
         style="font-size:20.07941818px;font-style:normal;font-variant:normal;font-weight:500;font-stretch:normal;line-height:125%;letter-spacing:0px;word-spacing:0px;fill:#1a1a1a;fill-opacity:1;stroke:none;font-family:Rekha;-inkscape-font-specification:Rekha Italic" />
      <path
         inkscape:connector-curvature="0"
         id="path870"
         d="m 35.818276,1035.0678 0,-4.0765 q -2.783345,0.9275 -3.851698,2.1365 -0.702869,0.7872 -0.702869,1.7994 0,1.0121 0.534179,1.6306 0.534174,0.6185 1.321384,0.6185 0.421714,0 0.927775,-0.1687 0.506068,-0.1687 0.815329,-0.3375 0.618521,-0.281 0.787211,-0.5903 0.168689,-0.3374 0.168689,-1.012 z m 4.35774,1.6023 0,0.7312 q -0.759092,0.8995 -1.518178,1.2087 -0.47795,0.197 -0.984005,0.197 -0.702869,0 -1.096465,-0.2532 -0.730994,-0.4778 -0.730994,-1.7992 -1.040234,0.9279 -1.827445,1.3775 -1.180806,0.6749 -2.249152,0.6749 -1.208924,0 -2.108588,-0.7872 -0.871545,-0.7873 -0.871545,-2.1367 0,-1.9119 1.799327,-3.1489 1.237036,-0.8434 5.229305,-2.418 l 0,-1.7148 q 0,-1.3214 -0.759092,-1.9118 -0.562305,-0.4216 -1.405732,-0.4216 -0.759092,0 -1.377614,0.3934 -0.618521,0.3656 -0.618521,0.9841 0,0.2811 0.02816,0.5903 0.05618,0.2812 0.112499,0.5061 0,0.4779 -0.365497,0.8435 -0.365477,0.3655 -0.899663,0.3655 -0.590403,0 -0.899664,-0.3937 -0.309261,-0.4217 -0.309261,-0.8433 0,-1.0402 1.068353,-1.9681 1.321377,-1.1526 3.51432,-1.1526 2.727102,0 3.654884,1.6024 0.534186,0.9279 0.534186,2.8959 l 0,5.4822 q 0,0.8717 0.112499,1.2652 0.140512,0.3655 0.702856,0.3655 0.393595,0 0.674758,-0.14 0.281142,-0.1416 0.590402,-0.3943 z"
         style="font-size:20.07941818px;font-style:normal;font-variant:normal;font-weight:500;font-stretch:normal;line-height:125%;letter-spacing:0px;word-spacing:0px;fill:#1a1a1a;fill-opacity:1;stroke:none;font-family:Rekha;-inkscape-font-specification:Rekha Italic" />
    </g>
  </g>
</svg>
