<?xml version="1.0" encoding="UTF-8" standalone="no"?>
<!-- Created with Inkscape (http://www.inkscape.org/) -->

<svg
   xmlns:dc="http://purl.org/dc/elements/1.1/"
   xmlns:cc="http://creativecommons.org/ns#"
   xmlns:rdf="http://www.w3.org/1999/02/22-rdf-syntax-ns#"
   xmlns:svg="http://www.w3.org/2000/svg"
   xmlns="http://www.w3.org/2000/svg"
   xmlns:sodipodi="http://sodipodi.sourceforge.net/DTD/sodipodi-0.dtd"
   xmlns:inkscape="http://www.inkscape.org/namespaces/inkscape"
   width="48"
   height="48"
   id="svg2"
   version="1.1"
   inkscape:version="0.48+devel r12485"
   sodipodi:docname="code-class.svg">
  <defs
     id="defs4" />
  <sodipodi:namedview
     id="base"
     pagecolor="#ffffff"
     bordercolor="#666666"
     borderopacity="1.0"
     inkscape:pageopacity="0.0"
     inkscape:pageshadow="2"
     inkscape:zoom="4.1531187"
     inkscape:cx="41.801417"
     inkscape:cy="47.624379"
     inkscape:document-units="px"
     inkscape:current-layer="layer1"
     showgrid="false"
     inkscape:window-width="1366"
     inkscape:window-height="716"
     inkscape:window-x="0"
     inkscape:window-y="28"
     inkscape:window-maximized="1" />
  <metadata
     id="metadata7">
    <rdf:RDF>
      <cc:Work
         rdf:about="">
        <dc:format>image/svg+xml</dc:format>
        <dc:type
           rdf:resource="http://purl.org/dc/dcmitype/StillImage" />
        <dc:title />
      </cc:Work>
    </rdf:RDF>
  </metadata>
  <g
     inkscape:label="Capa 1"
     inkscape:groupmode="layer"
     id="layer1"
     transform="translate(0,-1004.3622)">
    <path
       style="color:#000000;fill:#d40000;fill-opacity:1;fill-rule:nonzero;stroke:none;stroke-width:1;marker:none;visibility:visible;display:inline;overflow:visible;enable-background:accumulate"
       d="M 23 14 L 23 34 L 23.037109 34 L 25 34 L 26.505859 34 L 26.505859 32.072266 L 25 32.072266 L 25 16 L 27 16 L 27 14 L 25 14 L 23 14 z "
       transform="translate(0,1004.3622)"
       id="rect3860" />
    <path
       inkscape:connector-curvature="0"
       style="fill:#1a1a1a;stroke:none"
       d="m 26,1013.3622 0,13 13,0 0,-13 -13,0 z m 2,2 9,0 0,9 -9,0 0,-9 z"
       id="path3250" />
    <path
       id="path3281"
       d="m 26,1030.3622 0,13 13,0 0,-13 -13,0 z m 2,2 9,0 0,9 -9,0 0,-9 z"
       style="fill:#1a1a1a;stroke:none"
       inkscape:connector-curvature="0" />
    <path
       inkscape:connector-curvature="0"
       style="fill:#1a1a1a;stroke:none"
       d="m 9,1013.3622 0,13 13,0 0,-13 -13,0 z m 2,2 9,0 0,9 -9,0 0,-9 z"
       id="path3283" />
  </g>
</svg>
