<?xml version="1.0" encoding="UTF-8" standalone="no"?>
<!-- Created with Inkscape (http://www.inkscape.org/) -->

<svg
   xmlns:dc="http://purl.org/dc/elements/1.1/"
   xmlns:cc="http://creativecommons.org/ns#"
   xmlns:rdf="http://www.w3.org/1999/02/22-rdf-syntax-ns#"
   xmlns:svg="http://www.w3.org/2000/svg"
   xmlns="http://www.w3.org/2000/svg"
   xmlns:sodipodi="http://sodipodi.sourceforge.net/DTD/sodipodi-0.dtd"
   xmlns:inkscape="http://www.inkscape.org/namespaces/inkscape"
   width="48"
   height="48"
   id="svg3979"
   version="1.1"
   inkscape:version="0.48+devel r12483"
   sodipodi:docname="document-preview-archive.svg">
  <defs
     id="defs3981" />
  <sodipodi:namedview
     id="base"
     pagecolor="#ffffff"
     bordercolor="#666666"
     borderopacity="1.0"
     inkscape:pageopacity="0.0"
     inkscape:pageshadow="2"
     inkscape:zoom="8.3062375"
     inkscape:cx="-12.91223"
     inkscape:cy="27.558563"
     inkscape:document-units="px"
     inkscape:current-layer="layer1"
     showgrid="false"
     fit-margin-top="0"
     fit-margin-left="0"
     fit-margin-right="0"
     fit-margin-bottom="0"
     inkscape:window-width="1366"
     inkscape:window-height="714"
     inkscape:window-x="0"
     inkscape:window-y="30"
     inkscape:window-maximized="1" />
  <metadata
     id="metadata3984">
    <rdf:RDF>
      <cc:Work
         rdf:about="">
        <dc:format>image/svg+xml</dc:format>
        <dc:type
           rdf:resource="http://purl.org/dc/dcmitype/StillImage" />
        <dc:title />
      </cc:Work>
    </rdf:RDF>
  </metadata>
  <g
     inkscape:label="Capa 1"
     inkscape:groupmode="layer"
     id="layer1"
     transform="translate(-601.71428,-491.21933)">
    <g
       transform="translate(8.57142,-191.42857)"
       id="layer1-4"
       inkscape:label="Capa 1">
      <path
         id="path3233"
         d="m 612.14286,691.64795 c -5.52285,0 -10,4.47715 -10,10 0,5.52285 4.47715,10 10,10 5.52285,0 10,-4.47715 10,-10 0,-5.52285 -4.47715,-10 -10,-10 z m 0,2 c 4.41828,0 8,3.58172 8,8 0,4.41828 -3.58172,8 -8,8 -4.41828,0 -8,-3.58172 -8,-8 0,-4.41828 3.58172,-8 8,-8 z"
         style="fill:#1a1a1a;fill-opacity:1;stroke:none"
         inkscape:connector-curvature="0" />
      <path
         sodipodi:nodetypes="ccccc"
         inkscape:connector-curvature="0"
         id="rect3241"
         d="m 623.45731,710.13425 -2.82812,2.8281 8.68554,8.6855 2.82813,-2.8281 z"
         style="fill:#1a1a1a;fill-opacity:1;stroke:none" />
    </g>
  </g>
</svg>
