<?xml version="1.0" encoding="UTF-8" standalone="no"?>
<!-- Created with Inkscape (http://www.inkscape.org/) -->

<svg
   xmlns:dc="http://purl.org/dc/elements/1.1/"
   xmlns:cc="http://creativecommons.org/ns#"
   xmlns:rdf="http://www.w3.org/1999/02/22-rdf-syntax-ns#"
   xmlns:svg="http://www.w3.org/2000/svg"
   xmlns="http://www.w3.org/2000/svg"
   xmlns:sodipodi="http://sodipodi.sourceforge.net/DTD/sodipodi-0.dtd"
   xmlns:inkscape="http://www.inkscape.org/namespaces/inkscape"
   width="48"
   height="48"
   id="svg1929"
   version="1.1"
   inkscape:version="0.48+devel r12483"
   sodipodi:docname="edit-find-replace.svg">
  <defs
     id="defs1931" />
  <sodipodi:namedview
     id="base"
     pagecolor="#ffffff"
     bordercolor="#666666"
     borderopacity="1.0"
     inkscape:pageopacity="0.0"
     inkscape:pageshadow="2"
     inkscape:zoom="5.610409"
     inkscape:cx="27.073582"
     inkscape:cy="20.1275"
     inkscape:document-units="px"
     inkscape:current-layer="layer1"
     showgrid="false"
     inkscape:window-width="1366"
     inkscape:window-height="719"
     inkscape:window-x="-4"
     inkscape:window-y="24"
     inkscape:window-maximized="1" />
  <metadata
     id="metadata1934">
    <rdf:RDF>
      <cc:Work
         rdf:about="">
        <dc:format>image/svg+xml</dc:format>
        <dc:type
           rdf:resource="http://purl.org/dc/dcmitype/StillImage" />
        <dc:title />
      </cc:Work>
    </rdf:RDF>
  </metadata>
  <g
     inkscape:label="Capa 1"
     inkscape:groupmode="layer"
     id="layer1"
     transform="translate(0,-1004.3622)">
    <path
       inkscape:connector-curvature="0"
       style="fill:#1a1a1a;fill-opacity:1;stroke:none"
       d="m 19,1013.3622 c -5.522847,0 -10,4.4772 -10,10 0,5.5228 4.477153,10.0001 10,10.0001 5.522847,0 10,-4.4773 10,-10.0001 0,-5.5228 -4.477153,-10 -10,-10 z m 0,2 c 4.418278,0 8,3.5817 8,8 0,4.4184 -3.581722,8.0001 -8,8.0001 -4.418278,0 -8,-3.5817 -8,-8.0001 0,-4.4183 3.581722,-8 8,-8 z"
       id="path3233" />
    <path
       style="fill:#1a1a1a;fill-opacity:1;stroke:none"
       d="m 30.314453,1031.8486 -2.828125,2.828 8.685547,8.6856 L 39,1040.5341 Z"
       id="rect3241"
       inkscape:connector-curvature="0"
       sodipodi:nodetypes="ccccc" />
    <rect
       style="fill:#1a1a1a;fill-opacity:1;stroke:none"
       id="rect3256"
       width="4"
       height="4"
       x="9"
       y="1039.3622"
       ry="0" />
    <rect
       ry="0"
       y="1039.3622"
       x="15"
       height="4"
       width="4"
       id="rect3262"
       style="fill:#1a1a1a;fill-opacity:1;stroke:none" />
    <rect
       style="fill:#1a1a1a;fill-opacity:1;stroke:none"
       id="rect3266"
       width="4"
       height="4"
       x="21"
       y="1039.3622"
       ry="0" />
  </g>
</svg>
