<?xml version="1.0" encoding="UTF-8" standalone="no"?>
<!-- Created with Inkscape (http://www.inkscape.org/) -->

<svg
   xmlns:dc="http://purl.org/dc/elements/1.1/"
   xmlns:cc="http://creativecommons.org/ns#"
   xmlns:rdf="http://www.w3.org/1999/02/22-rdf-syntax-ns#"
   xmlns:svg="http://www.w3.org/2000/svg"
   xmlns="http://www.w3.org/2000/svg"
   xmlns:sodipodi="http://sodipodi.sourceforge.net/DTD/sodipodi-0.dtd"
   xmlns:inkscape="http://www.inkscape.org/namespaces/inkscape"
   width="48"
   height="48"
   id="svg2"
   version="1.1"
   inkscape:version="0.48+devel r12485"
   sodipodi:docname="media-playlist-shuffle.svg">
  <defs
     id="defs4" />
  <sodipodi:namedview
     id="base"
     pagecolor="#ffffff"
     bordercolor="#666666"
     borderopacity="1.0"
     inkscape:pageopacity="0.0"
     inkscape:pageshadow="2"
     inkscape:zoom="4.0074349"
     inkscape:cx="-4.6094399"
     inkscape:cy="21.314535"
     inkscape:document-units="px"
     inkscape:current-layer="layer1"
     showgrid="false"
     inkscape:window-width="1366"
     inkscape:window-height="716"
     inkscape:window-x="0"
     inkscape:window-y="28"
     inkscape:window-maximized="1" />
  <metadata
     id="metadata7">
    <rdf:RDF>
      <cc:Work
         rdf:about="">
        <dc:format>image/svg+xml</dc:format>
        <dc:type
           rdf:resource="http://purl.org/dc/dcmitype/StillImage" />
        <dc:title />
      </cc:Work>
    </rdf:RDF>
  </metadata>
  <g
     inkscape:label="Capa 1"
     inkscape:groupmode="layer"
     id="layer1"
     transform="translate(0,-1004.3622)">
    <g
       id="Icons with numbers"
       transform="matrix(2.1428571,0,0,2.1428571,6.8571432,1011.2193)"
       style="fill:#1a1a1a;stroke:none">
      <g
         transform="translate(-384,-96)"
         id="Group"
         style="fill:#1a1a1a">
        <path
           id="Shape"
           d="m 393,109 -1.61633,-2.1551 1.25431,-1.66092 L 394,107 l 1.00267,0 0,-2 3.99733,3 -3.99733,3 0,-2 z M 388.38367,102.8449 387,101 l -2,0 0,-2 3,0 1.63798,2.18398 z M 393.04248,99 l 1.96019,0 0,-2 3.99733,3 -3.99733,3 0,-2 -0.96019,0 -6.0415,8 -3.00098,0 0,-2 2.00098,0 z"
           inkscape:connector-curvature="0"
           sodipodi:nodetypes="ccccccccccccccccccccccccccccc"
           style="fill:#1a1a1a" />
      </g>
    </g>
  </g>
</svg>
