<?xml version="1.0" encoding="UTF-8" standalone="no"?>
<!-- Created with Inkscape (http://www.inkscape.org/) -->

<svg
   xmlns:dc="http://purl.org/dc/elements/1.1/"
   xmlns:cc="http://creativecommons.org/ns#"
   xmlns:rdf="http://www.w3.org/1999/02/22-rdf-syntax-ns#"
   xmlns:svg="http://www.w3.org/2000/svg"
   xmlns="http://www.w3.org/2000/svg"
   xmlns:sodipodi="http://sodipodi.sourceforge.net/DTD/sodipodi-0.dtd"
   xmlns:inkscape="http://www.inkscape.org/namespaces/inkscape"
   width="48"
   height="48"
   id="svg4062"
   version="1.1"
   inkscape:version="0.48+devel r12392"
   sodipodi:docname="tools-media-optical-copy.svg">
  <defs
     id="defs4064" />
  <sodipodi:namedview
     id="base"
     pagecolor="#ffffff"
     bordercolor="#666666"
     borderopacity="1.0"
     inkscape:pageopacity="0.0"
     inkscape:pageshadow="2"
     inkscape:zoom="4.0526057"
     inkscape:cx="33.148353"
     inkscape:cy="4.1897387"
     inkscape:document-units="px"
     inkscape:current-layer="layer1"
     showgrid="false"
     inkscape:window-width="1366"
     inkscape:window-height="716"
     inkscape:window-x="0"
     inkscape:window-y="28"
     inkscape:window-maximized="1" />
  <metadata
     id="metadata4067">
    <rdf:RDF>
      <cc:Work
         rdf:about="">
        <dc:format>image/svg+xml</dc:format>
        <dc:type
           rdf:resource="http://purl.org/dc/dcmitype/StillImage" />
        <dc:title />
      </cc:Work>
    </rdf:RDF>
  </metadata>
  <g
     inkscape:label="Capa 1"
     inkscape:groupmode="layer"
     id="layer1"
     transform="translate(0,-1004.3622)">
    <path
       style="fill:#1a1a1a;fill-opacity:1;fill-rule:nonzero;stroke:none"
       d="m 19.721902,1043.3624 c -5.918413,0 -10.7219855,-4.8057 -10.7219855,-10.7219 0,-5.9174 4.8035725,-10.7221 10.7219855,-10.7221 5.916274,0 10.721987,4.8047 10.721987,10.7221 C 30.443889,1038.5567 25.638176,1043.3624 19.721902,1043.3624 z m 0,-7.1018 c 1.99705,0 3.620112,-1.6221 3.620112,-3.6201 0,-1.9992 -1.623062,-3.6202 -3.620112,-3.6202 -1.999189,0 -3.620112,1.621 -3.620112,3.6202 C 16.10179,1034.6385 17.722713,1036.2606 19.721902,1036.2606 z m 0,-3.159 c -0.250299,0 -0.46116,-0.2098 -0.46116,-0.4611 0,-0.2504 0.210861,-0.4612 0.46116,-0.4612 0.25137,0 0.461161,0.2108 0.461161,0.4612 C 20.183063,1032.8918 19.973272,1033.1016 19.721902,1033.1016 Z"
       id="path40"
       inkscape:connector-curvature="0" />
    <path
       style="fill:#1a1a1a;fill-opacity:1;fill-rule:nonzero;stroke:none"
       d="m 32.074914,1034.0843 c 0.05415,-0.4705 0.08021,-0.959 0.08021,-1.4438 0,-2.1146 -0.537626,-4.1116 -1.470596,-5.8557 0.742556,-0.6605 1.203215,-1.6255 1.203215,-2.7005 0,-1.9989 -1.612843,-3.6097 -3.609646,-3.6097 -1.07565,0 -2.040218,0.4609 -2.70055,1.2032 -1.744133,-0.9329 -3.741555,-1.4706 -5.855649,-1.4706 -0.485006,0 -0.973274,0.026 -1.443858,0.08 1.537016,-4.0404 5.422835,-6.9252 10.000057,-6.9252 5.915542,0 10.721986,4.8054 10.721986,10.722 C 39.000087,1028.6599 36.115099,1032.5468 32.074914,1034.0843 Z"
       id="path911"
       inkscape:connector-curvature="0"
       sodipodi:nodetypes="cscsscscssc" />
  </g>
</svg>
