<?xml version="1.0" encoding="UTF-8" standalone="no"?>
<!-- Created with Inkscape (http://www.inkscape.org/) -->

<svg
   xmlns:dc="http://purl.org/dc/elements/1.1/"
   xmlns:cc="http://creativecommons.org/ns#"
   xmlns:rdf="http://www.w3.org/1999/02/22-rdf-syntax-ns#"
   xmlns:svg="http://www.w3.org/2000/svg"
   xmlns="http://www.w3.org/2000/svg"
   xmlns:sodipodi="http://sodipodi.sourceforge.net/DTD/sodipodi-0.dtd"
   xmlns:inkscape="http://www.inkscape.org/namespaces/inkscape"
   width="48"
   height="48"
   id="svg3471"
   version="1.1"
   inkscape:version="0.48+devel r12392"
   sodipodi:docname="tools-media-optical-burn.svg">
  <defs
     id="defs3473" />
  <sodipodi:namedview
     id="base"
     pagecolor="#ffffff"
     bordercolor="#666666"
     borderopacity="1.0"
     inkscape:pageopacity="0.0"
     inkscape:pageshadow="2"
     inkscape:zoom="3.959798"
     inkscape:cx="19.147967"
     inkscape:cy="21.733488"
     inkscape:document-units="px"
     inkscape:current-layer="layer1"
     showgrid="false"
     inkscape:window-width="864"
     inkscape:window-height="438"
     inkscape:window-x="0"
     inkscape:window-y="46"
     inkscape:window-maximized="0"
     showguides="false" />
  <metadata
     id="metadata3476">
    <rdf:RDF>
      <cc:Work
         rdf:about="">
        <dc:format>image/svg+xml</dc:format>
        <dc:type
           rdf:resource="http://purl.org/dc/dcmitype/StillImage" />
        <dc:title />
      </cc:Work>
    </rdf:RDF>
  </metadata>
  <g
     inkscape:label="Capa 1"
     inkscape:groupmode="layer"
     id="layer1"
     transform="translate(0,-1004.3622)">
    <g
       id="g882"
       transform="translate(-453.14286,376.00002)">
      <g
         style="fill:#1a1a1a"
         transform="matrix(1.4976038,0,0,-1.4976038,477.14586,657.43007)"
         id="g38">
        <path
           inkscape:connector-curvature="0"
           id="path40"
           style="fill:#1a1a1a;fill-opacity:1;fill-rule:nonzero;stroke:none"
           d="m 0,0 c -1.869,0 -3.385,1.516 -3.385,3.385 0,1.868 1.516,3.384 3.385,3.384 1.867,0 3.383,-1.516 3.383,-3.384 C 3.383,1.516 1.867,0 0,0 m 0,13.4 c -5.533,0 -10.018,-4.484 -10.018,-10.015 0,-5.532 4.485,-10.017 10.018,-10.017 5.531,0 10.014,4.485 10.014,10.017 C 10.014,8.916 5.531,13.4 0,13.4" />
      </g>
      <g
         style="fill:#1a1a1a"
         transform="matrix(1.4976038,0,0,-1.4976038,477.78054,652.36247)"
         id="g42">
        <path
           inkscape:connector-curvature="0"
           id="path44"
           style="fill:#1a1a1a;fill-opacity:1;fill-rule:nonzero;stroke:none"
           d="m 0,0 c 0,-0.234 -0.191,-0.425 -0.426,-0.425 -0.234,0 -0.426,0.191 -0.426,0.425 0,0.235 0.192,0.426 0.426,0.426 C -0.191,0.426 0,0.235 0,0" />
      </g>
    </g>
  </g>
</svg>
