<?xml version="1.0" encoding="UTF-8" standalone="no"?>
<!-- Created with Inkscape (http://www.inkscape.org/) -->

<svg
   xmlns:dc="http://purl.org/dc/elements/1.1/"
   xmlns:cc="http://creativecommons.org/ns#"
   xmlns:rdf="http://www.w3.org/1999/02/22-rdf-syntax-ns#"
   xmlns:svg="http://www.w3.org/2000/svg"
   xmlns="http://www.w3.org/2000/svg"
   xmlns:sodipodi="http://sodipodi.sourceforge.net/DTD/sodipodi-0.dtd"
   xmlns:inkscape="http://www.inkscape.org/namespaces/inkscape"
   width="48"
   height="48"
   id="svg3380"
   version="1.1"
   inkscape:version="0.48+devel r12392"
   sodipodi:docname="tools-rip-video-dvd.svg">
  <defs
     id="defs3382" />
  <sodipodi:namedview
     id="base"
     pagecolor="#ffffff"
     bordercolor="#666666"
     borderopacity="1.0"
     inkscape:pageopacity="0.0"
     inkscape:pageshadow="2"
     inkscape:zoom="1.979899"
     inkscape:cx="35.369186"
     inkscape:cy="7.1516029"
     inkscape:document-units="px"
     inkscape:current-layer="layer1"
     showgrid="false"
     fit-margin-top="0"
     fit-margin-left="0"
     fit-margin-right="0"
     fit-margin-bottom="0"
     inkscape:window-width="1366"
     inkscape:window-height="716"
     inkscape:window-x="0"
     inkscape:window-y="28"
     inkscape:window-maximized="1" />
  <metadata
     id="metadata3385">
    <rdf:RDF>
      <cc:Work
         rdf:about="">
        <dc:format>image/svg+xml</dc:format>
        <dc:type
           rdf:resource="http://purl.org/dc/dcmitype/StillImage" />
        <dc:title />
      </cc:Work>
    </rdf:RDF>
  </metadata>
  <g
     inkscape:label="Capa 1"
     inkscape:groupmode="layer"
     id="layer1"
     transform="translate(-336,-328.36218)">
    <g
       id="g46"
       transform="matrix(1.4976038,0,0,-1.4976038,355.76852,360.11378)"
       style="fill:#1a1a1a">
      <path
         d="M 0,0 C 0,1.561 1.266,2.825 2.824,2.825 4.385,2.825 5.65,1.561 5.65,0 5.65,-1.561 4.385,-2.825 2.824,-2.825 1.266,-2.825 0,-1.561 0,0 m -2.484,2.483 c -1.561,0 -2.825,1.266 -2.825,2.826 0,1.56 1.264,2.825 2.825,2.825 1.56,0 2.826,-1.265 2.826,-2.825 0,-1.56 -1.266,-2.826 -2.826,-2.826 M 3.25,5.176 C 3.25,4.941 3.061,4.751 2.824,4.751 2.59,4.751 2.4,4.941 2.4,5.176 c 0,0.235 0.19,0.426 0.424,0.426 0.237,0 0.426,-0.191 0.426,-0.426 m -0.426,8.266 c 1.561,0 2.826,-1.264 2.826,-2.825 C 5.65,9.058 4.385,7.792 2.824,7.792 1.266,7.792 0,9.058 0,10.617 c 0,1.561 1.266,2.825 2.824,2.825 M 8.133,8.134 c 1.56,0 2.826,-1.265 2.826,-2.825 0,-1.56 -1.266,-2.826 -2.826,-2.826 -1.559,0 -2.824,1.266 -2.824,2.826 0,1.56 1.265,2.825 2.824,2.825 m 4.709,-2.957 c 0,5.531 -4.485,10.015 -10.018,10.015 -5.531,0 -10.015,-4.484 -10.015,-10.015 0,-5.532 4.484,-10.017 10.015,-10.017 l 10.016,0 0,0.657 -6.471,0 c 3.779,1.433 6.473,5.077 6.473,9.36"
         style="fill:#1a1a1a;fill-opacity:1;fill-rule:nonzero;stroke:none"
         id="path48"
         inkscape:connector-curvature="0" />
    </g>
  </g>
</svg>
