<?xml version="1.0" encoding="UTF-8" standalone="no"?>
<!-- Created with Inkscape (http://www.inkscape.org/) -->

<svg
   xmlns:dc="http://purl.org/dc/elements/1.1/"
   xmlns:cc="http://creativecommons.org/ns#"
   xmlns:rdf="http://www.w3.org/1999/02/22-rdf-syntax-ns#"
   xmlns:svg="http://www.w3.org/2000/svg"
   xmlns="http://www.w3.org/2000/svg"
   xmlns:sodipodi="http://sodipodi.sourceforge.net/DTD/sodipodi-0.dtd"
   xmlns:inkscape="http://www.inkscape.org/namespaces/inkscape"
   width="48"
   height="48"
   id="svg2"
   version="1.1"
   inkscape:version="0.48+devel r12487"
   sodipodi:docname="media-playlist-repeat.svg">
  <defs
     id="defs4" />
  <sodipodi:namedview
     id="base"
     pagecolor="#ffffff"
     bordercolor="#666666"
     borderopacity="1.0"
     inkscape:pageopacity="0.0"
     inkscape:pageshadow="2"
     inkscape:zoom="11.334738"
     inkscape:cx="24.915148"
     inkscape:cy="28.159612"
     inkscape:document-units="px"
     inkscape:current-layer="layer1"
     showgrid="false"
     inkscape:window-width="1366"
     inkscape:window-height="716"
     inkscape:window-x="0"
     inkscape:window-y="28"
     inkscape:window-maximized="1" />
  <metadata
     id="metadata7">
    <rdf:RDF>
      <cc:Work
         rdf:about="">
        <dc:format>image/svg+xml</dc:format>
        <dc:type
           rdf:resource="http://purl.org/dc/dcmitype/StillImage" />
        <dc:title />
      </cc:Work>
    </rdf:RDF>
  </metadata>
  <g
     inkscape:label="Capa 1"
     inkscape:groupmode="layer"
     id="layer1"
     transform="translate(0,-1004.3622)">
    <g
       id="Icons with numbers"
       transform="matrix(2.1428571,0,0,2.1428571,6.8571432,1011.2193)"
       style="fill:#1a1a1a;stroke:none">
      <g
         transform="translate(-336,-96)"
         id="Group"
         style="fill:#1a1a1a">
        <path
           id="Rectangle 259"
           d="m 350.429,101.67831 c 0.36461,0.69378 0.57106,1.48367 0.57106,2.32171 0,2.7558 -2.23709,5 -4.99669,5 l -4.00344,0 0,2 -4,-3 4,-3 0,2 4.00298,0 c 1.65528,0 2.99715,-1.34652 2.99715,-3 0,-0.38659 -0.073,-0.7561 -0.20606,-1.09545 z m -11.42907,2.32171 c 0,0.38659 0.073,0.7561 0.20606,1.09545 l -1.635,1.22626 c -0.36461,-0.69378 -0.57106,-1.48367 -0.57106,-2.32171 0,-2.7558 2.23709,-5 4.99669,-5 l 4.00344,0 0,-2 4,3 -4,3 0,-2 -4.00298,0 c -1.65528,0 -2.99715,1.34652 -2.99715,3 z"
           inkscape:connector-curvature="0"
           sodipodi:nodetypes="csscccccssccsccsscccccss"
           style="fill:#1a1a1a" />
      </g>
    </g>
  </g>
</svg>
