<?xml version="1.0" encoding="UTF-8" standalone="no"?>
<!-- Created with Inkscape (http://www.inkscape.org/) -->

<svg
   xmlns:dc="http://purl.org/dc/elements/1.1/"
   xmlns:cc="http://creativecommons.org/ns#"
   xmlns:rdf="http://www.w3.org/1999/02/22-rdf-syntax-ns#"
   xmlns:svg="http://www.w3.org/2000/svg"
   xmlns="http://www.w3.org/2000/svg"
   xmlns:sodipodi="http://sodipodi.sourceforge.net/DTD/sodipodi-0.dtd"
   xmlns:inkscape="http://www.inkscape.org/namespaces/inkscape"
   width="48"
   height="48"
   id="svg4478"
   version="1.1"
   inkscape:version="0.48+devel r12483"
   sodipodi:docname="gtk-leave-fullscreen.svg">
  <defs
     id="defs4480" />
  <sodipodi:namedview
     id="base"
     pagecolor="#ffffff"
     bordercolor="#666666"
     borderopacity="1.0"
     inkscape:pageopacity="0.0"
     inkscape:pageshadow="2"
     inkscape:zoom="16"
     inkscape:cx="32.709486"
     inkscape:cy="26.718489"
     inkscape:document-units="px"
     inkscape:current-layer="layer1"
     showgrid="false"
     width="0px"
     height="0px"
     fit-margin-top="0"
     fit-margin-left="0"
     fit-margin-right="0"
     fit-margin-bottom="0"
     inkscape:window-width="1366"
     inkscape:window-height="716"
     inkscape:window-x="0"
     inkscape:window-y="28"
     inkscape:window-maximized="1" />
  <metadata
     id="metadata4483">
    <rdf:RDF>
      <cc:Work
         rdf:about="">
        <dc:format>image/svg+xml</dc:format>
        <dc:type
           rdf:resource="http://purl.org/dc/dcmitype/StillImage" />
        <dc:title />
      </cc:Work>
    </rdf:RDF>
  </metadata>
  <g
     inkscape:label="Capa 1"
     inkscape:groupmode="layer"
     id="layer1"
     transform="translate(0,-1004.3622)">
    <path
       style="fill:#1a1a1a;fill-opacity:1;stroke:none"
       d="m 20.296875,1013.3622 -2.816406,2.8168 3.691406,3.6938 2.828125,2.8266 2.828125,-2.8266 3.691406,-3.6938 -2.816406,-2.8168 -0.02344,0 -3.679688,3.6821 -3.679687,-3.6821 -0.02344,0 z m -8.474609,8.4758 -2.8222659,2.8227 0,0.012 3.6855469,3.686 -3.6640625,3.6625 2.8281255,2.8285 6.492187,-6.4891 -6.519531,-6.5223 z m 24.353515,0 -6.519531,6.5184 6.519531,6.5203 2.824219,-2.8246 0,-0.01 -3.6875,-3.6879 3.6875,-3.686 0,-0.01 -2.824219,-2.8246 z M 24,1034.0134 l -2.828125,2.8285 -3.662109,3.6645 2.828125,2.8285 3.662109,-3.6645 3.691406,3.6918 2.828125,-2.8285 L 24,1034.0134 Z"
       id="rect3250"
       inkscape:connector-curvature="0" />
  </g>
</svg>
