<?xml version="1.0" encoding="UTF-8" standalone="no"?>
<!-- Created with Inkscape (http://www.inkscape.org/) -->

<svg
   xmlns:dc="http://purl.org/dc/elements/1.1/"
   xmlns:cc="http://creativecommons.org/ns#"
   xmlns:rdf="http://www.w3.org/1999/02/22-rdf-syntax-ns#"
   xmlns:svg="http://www.w3.org/2000/svg"
   xmlns="http://www.w3.org/2000/svg"
   xmlns:sodipodi="http://sodipodi.sourceforge.net/DTD/sodipodi-0.dtd"
   xmlns:inkscape="http://www.inkscape.org/namespaces/inkscape"
   width="48"
   height="48"
   id="svg3049"
   version="1.1"
   inkscape:version="0.48+devel r12485"
   sodipodi:docname="view-right-close.svg"
   inkscape:export-filename="/home/uri/.kde/share/icons/NITRUX-KDE/16x16/actions/view-right-new.png"
   inkscape:export-xdpi="30"
   inkscape:export-ydpi="30">
  <defs
     id="defs3051" />
  <sodipodi:namedview
     id="base"
     pagecolor="#ffffff"
     bordercolor="#666666"
     borderopacity="1.0"
     inkscape:pageopacity="0.0"
     inkscape:pageshadow="2"
     inkscape:zoom="8.6307"
     inkscape:cx="33.591728"
     inkscape:cy="19.705551"
     inkscape:document-units="px"
     inkscape:current-layer="layer1"
     showgrid="false"
     fit-margin-top="0"
     fit-margin-left="0"
     fit-margin-right="0"
     fit-margin-bottom="0"
     inkscape:window-width="1366"
     inkscape:window-height="719"
     inkscape:window-x="-4"
     inkscape:window-y="24"
     inkscape:window-maximized="1"
     inkscape:showpageshadow="false"
     borderlayer="true" />
  <metadata
     id="metadata3054">
    <rdf:RDF>
      <cc:Work
         rdf:about="">
        <dc:format>image/svg+xml</dc:format>
        <dc:type
           rdf:resource="http://purl.org/dc/dcmitype/StillImage" />
        <dc:title></dc:title>
      </cc:Work>
    </rdf:RDF>
  </metadata>
  <g
     inkscape:label="Capa 1"
     inkscape:groupmode="layer"
     id="layer1"
     transform="translate(-421.71429,-499.79074)">
    <path
       style="fill:#1a1a1a;stroke:none"
       d="M 9 9 L 9 39 L 39 39 L 39 9 L 9 9 z M 11 11 L 37 11 L 37 37 L 11 37 L 11 11 z "
       transform="translate(421.71429,499.79074)"
       id="rect2983" />
    <path
       style="fill:#1a1a1a;fill-opacity:1;stroke:none"
       d="m 456.71429,512.79074 0,2.58594 -2.58594,-2.58594 2.58594,0 z m -5.41406,0 5.41406,5.41406 0,3.17188 -8.58594,-8.58594 3.17188,0 z m -4.58594,1.41406 10,10 0,3.17188 -10,-10 0,-3.17188 z m 0,6 10,10 0,3.17188 -10,-10 0,-3.17188 z m 0,6 8.58594,8.58594 -3.17188,0 -5.41406,-5.41406 0,-3.17188 z m 0,6 2.58594,2.58594 -2.58594,0 0,-2.58594 z"
       id="path3245"
       inkscape:connector-curvature="0" />
    <path
       style="fill:#1a1a1a;fill-opacity:1;stroke:none"
       d="m 444.71429,512.79074 0,22 -10,0 0,-22 10,0 z"
       id="rect3236"
       inkscape:connector-curvature="0" />
  </g>
</svg>
